<svg xmlns="http://www.w3.org/2000/svg" width="144.08823" height="32.48896" viewBox="0 0 38.123344 8.5960376">
  <g fill="#303577">
    <path d="M8.80934939 3.17003555c-.006-.01446-.0095-.02858-.01552-.04339-.360892-.884766-1.732139-1.152877-3.312936-.748594l-.259292-.161572c.778228-.335845 1.553281-.511175 2.202744-.463198.968728.07338 1.442509.62477 1.385006 1.416756m-1.405467 1.858433c-1.01353 1.290461-2.845152 2.183695-4.091516 2.091267-1.244247-.09419-1.432984-1.215672-.4191-2.506133.02011-.02646.04198-.05256.06315-.07902l.0032 1.617839c-.0067.411339.389467.604309.674158.440972l3.726392-2.272594c.291394-.188736.260703-.611011-.01376-.773642l-1.510948-.869597c.408517-.122766.800453-.180622 1.148645-.154869 1.245305.09419 1.43263 1.215319.419805 2.50578m-4.739569 2.785534c-1.143706-.08608-1.599847-.839964-1.302103-1.866548-.0018.171098.02505.335139.08855.487539.44697 1.098903 2.45357 1.247775 4.481337.335492.04163-.0187.0829-.03916.123825-.0575-1.138414.734836-2.40665 1.174045-3.391606 1.10102m1.317625-5.744986l2.501547 1.576563c.184856.110773.207081.399345.01023.527403l-2.526947 1.540933c-.19297.111125-.46355-.02117-.458259-.30233l-.01199-3.059642c.01094-.255411.263525-.409575.485422-.282927m5.790494.567619c-.524227-1.288344-2.701572-1.571978-5.057775-.738364l-1.045633-.655108c-.325614-.185914-.697442.04057-.715433.417336l.000705 1.063978c-2.030588 1.21673-3.208161 2.968272-2.706863 4.20123.581025 1.424164 3.183466 1.619603 5.813072.434975 2.630311-1.183922 4.291894-3.299178 3.711927-4.724047" style="ffffff-opacity:1"/>
    <path d="M11.86256139 4.49356055l-.227189.836436c-.03387.127353-.05997.243417-.08079.343253-.02152.105128-.03034.180269-.03034.226836 0 .08961.02434.158044.07408.20955.05221.05115.121356.0762.206375.0762.13335 0 .271992-.07514.415573-.225425.142875-.150636.279752-.365831.413455-.648053.159809-.360891.290336-.716139.390878-1.071739.09701-.351366.148167-.627944.148167-.824794 0-.142875-.02963-.258233-.08714-.343958-.05786-.08678-.131939-.131234-.218723-.131234-.197908 0-.378177.128059-.54363.379942-.165453.254705-.318911.644525-.460728 1.172986m-1.427339-1.9431c.353131-.02787.687564-.06491 1.008592-.106186.319616-.04128.627591-.08925.924983-.147461l-.250119.896761c.249766-.346781.487891-.601486.716139-.75812.224013-.161925.456847-.23883.701675-.23883.333022 0 .591608.105128.771172.314678.182386.211666.271639.512233.271639.900994 0 .328083-.06103.674511-.185562 1.036108-.125236.362303-.301272.698853-.521052 1.011414-.258586.363361-.531284.635706-.823031.815975-.293158.181681-.601839.273403-.93098.273403-.135114 0-.261056-.0187-.380648-.05927-.117122-.04198-.223308-.09878-.319616-.175683l-.256117.972256c-.01764.05821-.0314.12065-.0381.18168-.0099.05962-.01235.119945-.01235.18027 0 .116769.03351.201436.102658.248708.0695.04692.209903.07585.420864.08925v.227189h-2.3876v-.237067c.0081 0 .01976-.0011.03492-.0039.01588-.0039.02822-.0053.03422-.0053.148519 0 .258938-.0381.333022-.116064.07479-.07761.150636-.279753.230716-.609247l.950384-3.871031c.01658-.06174.02928-.124883.03951-.184855.0095-.05786.01517-.105481.01517-.137231 0-.106539-.0321-.1778-.09419-.216958-.06421-.04375-.183092-.0635-.356306-.0635z"/>
    <path d="M14.81615839.41521955c.357011-.02893.697794-.06773 1.029053-.115006.328789-.04692.64135-.101247.934508-.167922l-1.311275 5.19042c-.0085.02857-.01834.06279-.02963.10795-.01729.06703-.02364.110066-.02364.132997 0 .06103.01129.109714.03528.143228.0254.03493.06103.05186.107245.05186.04727 0 .100542-.03246.161925-.09913.06068-.06526.178505-.237066.353836-.515408l.209197.15875c-.263172.440619-.516819.760942-.755297.959203-.238478.197908-.486128.296333-.745067.296333-.228247 0-.406752-.06315-.529872-.191911-.12453-.128764-.185561-.314325-.185561-.553861 0-.117828.06385-.430389.189794-.936978l.0127-.05115.870303-3.3782c.0078-.03104.0187-.07726.03281-.137936.05539-.22225.07973-.365477.07973-.427214 0-.08502-.02858-.146755-.08784-.18803-.05786-.03986-.148167-.06138-.273403-.06138h-.07479z"/>
    <path d="M18.92135339 3.10325455c0-.124178-.02611-.222603-.08043-.296686-.05433-.07338-.124531-.109714-.212373-.109714-.124883 0-.244827.06068-.361244.18415-.116417.124883-.249767.330906-.402519.619478-.178506.343958-.318559.679097-.4191 1.00965-.103364.333375-.154517.615244-.154517.849136 0 .142169.02857.251883.08502.335139.0568.07832.134761.11818.229659.11818.140758 0 .284339-.08361.433211-.254705.148519-.170039.288925-.409928.421922-.718609.1397-.343958.249767-.67945.334081-.999066.08361-.322086.126294-.567267.126294-.736953m1.581856-.761647l-.699559 2.567516v.0092c-.106539.395464-.160161.625475-.160161.691444 0 .06103.01058.109714.03528.147814.02293.03845.05292.05503.09313.05503.113242 0 .261056-.136172.438503-.409575.05362-.07796.0949-.1397.123119-.182739l.2032.160162c-.228247.400755-.455788.697088-.687916.885824-.232128.189442-.482953.282928-.750006.282928-.222603 0-.392641-.04939-.507294-.147108-.118181-.101247-.175684-.245181-.175684-.437445 0-.05715.0042-.13088.01658-.217311.01023-.08784.02858-.201436.05292-.340077-.211314.386291-.441678.673805-.690386.859366-.24765.189089-.524581.282575-.829734.282575-.315383 0-.563386-.09807-.745772-.294922-.183092-.198967-.274461-.468842-.274461-.812447 0-.395464.08643-.811742.263878-1.252008.174978-.434623.41028-.823737.706966-1.157817.233892-.268464.475898-.474839.727781-.619478.253647-.144639.496005-.2159.729192-.2159.222955 0 .395816.05433.52458.161925.128411.109361.212725.27552.253295.496711l.128763-.513644z"/>
    <path d="M20.09554839 2.69677455v-.237067c.340783-.0381.6858-.08537 1.037519-.138289.348898-.05327.539045-.07902.565503-.07902.140406 0 .324203.617714.546806 1.855259.09031.492477.164394.889352.222603 1.186391.265288-.537986.446616-.930628.544688-1.176161.09772-.244122.145698-.425803.145698-.541867 0-.08996-.08185-.199319-.244828-.32385-.162631-.125941-.245886-.27058-.245886-.430388 0-.185209.05644-.334434.17145-.447675.112536-.111478.263172-.16757.451202-.16757.185914 0 .33267.05609.437798.16757.103364.113241.156986.271638.156986.473075 0 .253294-.121709.661458-.362656 1.222727-.241653.560211-.571853 1.190978-.989894 1.896534-.473075.804333-.904875 1.38818-1.292225 1.757891-.387703.369359-.760942.553156-1.119717.553156-.238478 0-.425097-.05292-.561622-.159103-.135819-.106892-.204258-.252942-.204258-.439208 0-.169334.05821-.306564.177094-.418042.117475-.110419.266347-.1651.447675-.1651.141817 0 .294217.0568.456847.168628.161925.113594.272345.167216.325967.167216.09772 0 .207786-.08184.332317-.24518.128058-.165453.191911-.320675.191911-.471311 0-.109714-.01023-.249767-.02963-.417689-.01905-.169686-.04974-.376767-.08925-.622653-.08255-.527403-.166159-1.008944-.249414-1.441097-.08537-.431447-.16122-.772231-.229306-1.021292-.05997-.213783-.120297-.352777-.181328-.418394-.06103-.06491-.159808-.09701-.300919-.09701h-.01094c-.04092.0056-.07232.0095-.100189.0095"/>
    <path d="M25.55107139 5.38832855c-.263525.371475-.522464.656519-.7747.853369-.249767.198967-.478014.297745-.685447.297745-.167217 0-.297745-.05539-.394053-.162278-.09631-.109361-.145344-.255764-.145344-.439208 0-.06456.0067-.136172.0194-.216606.01164-.08114.03034-.171097.05539-.265994l.752123-2.940756h-.791986l.07373-.252941c.340431-.07444.64135-.236714.90417-.487892.261408-.252236.498827-.600428.707319-1.046339h.270228l-.353484 1.476375h.723548l-.07303.310797h-.745773l-.722136 2.840567c-.01658.06456-.02928.121003-.0381.174272-.006.05186-.01164.09948-.01164.1397 0 .09455.02046.165806.06315.216606.03916.05045.09878.07479.171097.07479.09455 0 .20567-.05503.337256-.170392.131233-.112889.297391-.29845.496711-.554214z"/>
    <path d="M26.28976139 4.42021755c.582083-.02787 1.072797-.187325 1.466144-.474839.396523-.2921.591962-.61983.591962-.991658 0-.124531-.0314-.218017-.09454-.280811-.06103-.06032-.155928-.09137-.28328-.09137-.352778 0-.680509.159809-.98037.485775-.300214.328084-.532694.778228-.699911 1.352903m-.06879.311503c-.02716.10548-.04445.207433-.0568.304447-.01446.09419-.01834.182739-.01834.262819 0 .246239.05962.43427.182386.563739.12065.129823.298803.225778.53093.225778.2286 0 .49142-.108655.780698-.265642.292805-.155927.621947-.392288.984602-.708025l.191559.289984c-.432859.390172-.840317.678744-1.223434.862894-.381705.188031-.75565.279753-1.122891.279753-.359481 0-.641703-.109008-.839611-.323144-.199673-.216959-.298803-.5207-.298803-.91687 0-.37853.07761-.763764.232833-1.153936.155222-.388761.367595-.737658.635706-1.039636.259997-.289631.5461-.509411.854075-.663222.312561-.152048.631119-.230717.959202-.230717.302331 0 .539045.07091.714023.211314.174625.139347.262819.331611.262819.576439 0 .440619-.256822.823383-.765528 1.145116-.509764.321028-1.177572.512587-2.003425.578909"/>
    <path d="M31.90845239 4.79214255l-.01129.556683c-.274108.401109-.571147.700264-.894644.899936-.323498.197909-.676628.296334-1.059039.296334-.418747 0-.760942-.140053-1.023761-.423686-.261761-.279048-.392289-.650875-.392289-1.112661 0-.339373.07408-.685448.22225-1.038578.146403-.354542.352425-.66922.615244-.948972.240242-.252942.509764-.450498.808567-.585964.29598-.137936.598664-.208845.910519-.208845.327025 0 .58667.0762.780345.225425.193322.149578.290336.348192.290336.598664 0 .14852-.04939.277283-.150989.383117-.100189.106891-.218722.159103-.357364.159103-.113242 0-.204611-.03563-.274814-.110773-.06985-.07408-.104775-.170039-.104775-.289983 0-.08361.02716-.179211.08467-.290689.05539-.109714.0822-.178153.0822-.205669 0-.05151-.02716-.09278-.08537-.124884-.05786-.0321-.134056-.04798-.233186-.04798-.201436 0-.405342.06138-.615597.188383-.208492.129117-.390878.302683-.547512.523169-.190852.267406-.338313.552098-.441677.852664-.101953.299861-.1524.591256-.1524.879828 0 .325967.08184.586669.247297.776817.167217.1905.391583.319616.675569.319616.224014 0 .444148-.104775.6604-.244475.217664-.142169.57785-.425097.967317-1.026583"/>
    <path d="M31.41495139 6.54992855l1.481314-5.366808c.0088-.03281.01411-.06597.01799-.101953.0056-.03281.0071-.06703.0071-.09454 0-.0956-.02434-.16122-.07055-.198262-.04692-.03281-.181328-.0508-.400756-.0508h-.337256l.05221-.244827c.271991-.01094.525991-.04304.762705-.08925.234245-.04939.458611-.112889.666397-.195792h.267759l-1.025173 3.706989c.524934-.535164 1.008592-.949325 1.448506-1.247775.438855-.293158.789517-.44203 1.050925-.44203.137936 0 .237772.03281.304094.09842.06456.06773.09948.170391.09948.308327 0 .04304-.0071.09419-.01976.155928-.01164.06385-.02752.133703-.04657.208845l-.748241 2.525183c-.01305.04833-.0254.103011-.03492.161572-.01023.05644-.01552.115006-.01552.17145 0 .03246.01552.06068.04233.08678.02681.0247.05962.06879.0949.06879.07303 0 .175683-.08043.303742-.179917.129116-.09948.264583-.235655.407811-.407811l.1524.130881c-.257528.319616-.505883.565855-.744008.733425-.239184.169333-.460023.254705-.661106.254705-.131586 0-.235303-.03245-.31115-.09596-.07726-.06491-.113947-.150989-.113947-.263525 0-.03951.0032-.0822.01199-.127706.0078-.04516.02258-.09419.04057-.148166l.768702-2.611614c.01411-.05715.02328-.100895.02822-.130528.0046-.02858.006-.05715.006-.08114 0-.06668-.01799-.117475-.0568-.153458-.03669-.03316-.09031-.05045-.160867-.05045-.109361 0-.270933.06809-.483658.206375-.214489.137936-.458964.335138-.740481.590197-.25153.225778-.437444.418041-.554214.577144-.116769.159456-.202141.324556-.255058.496006l-.509764 1.801283c-.05821-.0088-.26423-.01552-.324203-.0194-.05962-.0042.02752-.0042-.03422-.0042-.06244 0-.124883 0-.185208.0042-.05856.0039-.119239.01058-.181681.0194M22.61705339 8.02619755v.06985c-.000353.03598.0035.06879.01341.100189.02117.08467.08996.127.207433.127.04374 0 .08326-.006.118886-.01834.08008-.02434.12065-.08467.123119-.178858-.000705-.06456-.02681-.115005-.07902-.150283-.03739-.02434-.08149-.04798-.132644-.07232l-.15487-.0702c-.06138-.02716-.112536-.05503-.153105-.08396-.08537-.05962-.128411-.144638-.128411-.256116.0011-.122061.04939-.208139.14358-.259292.07056-.03845.166511-.05821.289631-.05927.149578 0 .25788.02822.32385.08502.05256.04551.07902.135114.07902.268464v.02505h-.212725v-.02999l-.0042-.06491c-.01305-.09737-.0762-.144992-.189089-.142522-.143228 0-.215547.0575-.217311.172155 0 .07303.04516.132645.134408.178506.05609.02928.118533.05786.188383.08749.07056.02893.127706.0568.17145.08325.102659.0628.154164.156633.154164.283281-.0021.228247-.153458.343252-.45473.343252-.129117.0018-.2286-.02011-.298098-.06385-.08149-.05221-.125588-.125589-.132644-.222956l-.0028-.100542v-.05009zM23.43517239 7.59714955c.000706-.103011.01058-.178153.02858-.226131.02893-.07549.09137-.129822.188031-.161219.06985-.02364.144991-.03528.225777-.03528.07937 0 .154517.01164.225425.03528.09525.0314.157339.08573.18662.161219.01799.04692.02822.12312.02963.226131v.420158c0 .0755-.0042.141464-.0127.196145-.02364.165453-.164747.249414-.42298.250119-.187325 0-.312914-.03845-.376767-.116416-.04868-.05821-.07267-.168628-.07161-.329848zm.213078.418747c.000705.105481.0085.174625.02293.205317.01446.03104.04233.05644.08185.07479.04057.01799.08184.02716.12453.02716.03845 0 .07585-.0071.111125-.02293.06773-.02681.104775-.07479.111478-.14358.0035-.03916.0053-.08572.006-.140759v-.419805c.0014-.09102-.0092-.155223-.03034-.191911-.03351-.05927-.100188-.08925-.198261-.08855-.03845 0-.07408.0056-.107597.0187-.0695.02364-.108303.07267-.116417.145697-.0046.03316-.006.07197-.0053.116064zM24.51186739 7.19252155h.212372v.836436l.0021.11042c.0074.121708.07832.183091.212372.183797.134408 0 .208139-.05715.220839-.172156.0049-.04022.0074-.08079.0081-.122061v-.836436h.212725v.849842c-.000706.0695-.0032.123119-.0074.161572-.0067.05821-.02999.106892-.07091.14605-.07761.07585-.196497.112889-.356658.113594-.166158-.000705-.286103-.03739-.359128-.111477-.04092-.04233-.06385-.09137-.06914-.148167-.0035-.03387-.0053-.08714-.0053-.161572zM25.93484939 7.19252155h.127c.04904 0 .09419.0046.135114.01129.156986.02505.236361.124883.23883.300919 0 .09243-.02081.161573-.06209.210609-.04022.04551-.118887.0762-.234245.09278v-.000705c.07197.0071.123825.01799.155575.03281.04551.02258.07408.05927.08537.109008.0074.03281.01164.07197.01376.116064l.0092.147461c.0035.05609.0095.100189.01764.132292.0046.02293.01482.05644.0314.100542h-.221544l-.02152-.08008c-.006-.02258-.0099-.0515-.01164-.08643l-.0085-.112537-.0071-.117475c-.0099-.0896-.05327-.143933-.129822-.161572-.0321-.0067-.07056-.01023-.111125-.01023h-.147108v.568325h-.213431v-1.253067zm-.140758.141111v.402167h.152047c.04551 0 .08361-.0028.117828-.0078.06491-.01023.110066-.03634.135114-.07867.01623-.02787.02399-.07408.02399-.138994 0-.0695-.02364-.118181-.07126-.144992-.03457-.02046-.09842-.03104-.193675-.03175zM27.23625439 7.52303955l-.0011-.05821c-.0053-.100189-.06456-.149931-.178859-.149225-.1016.000352-.167569.02681-.198261.07902-.01693.02505-.02611.05115-.02787.0769l-.0018.103012v.494594c.000705.08961.0095.147461.02575.172861.03528.05398.09595.08114.182386.08114.112536-.000706.176741-.05398.190853-.160161l.0088-.08079v-.04304h.212725v.04374l-.0018.07832c-.0071.09349-.03845.1651-.09631.215194-.03493.03069-.07655.05186-.123825.06421-.05645.01552-.117475.02293-.18415.02293-.05715.0011-.110772-.0042-.163336-.01482-.175331-.03281-.263173-.149578-.264231-.351367v-.49918c-.000353-.05468.0025-.104775.01023-.151695.0078-.05715.02681-.105128.05715-.142522.06773-.08467.189441-.128058.364772-.129469.24518.0014.377472.07937.396169.233186.0035.02963.0053.06244.0053.09878v.04868h-.212725zM27.63457139 7.19252255h.696002v.14111h-.483301v.39723h.4533v.14111h-.4533v.43215h.4967v.14147h-.709401zM28.89566839 7.59714955c.000353-.103011.0095-.178153.02822-.226131.02822-.07549.09102-.129822.187678-.161219.06985-.02364.144992-.03528.225778-.03528.07937 0 .154869.01164.22613.03528.09454.0314.156986.08573.18662.161219.01799.04692.02787.12312.02928.226131v.420158c0 .0755-.0042.141464-.01199.196145-.02505.165453-.1651.249414-.424039.250119-.187678 0-.313267-.03845-.376414-.116416-.04868-.05821-.07232-.168628-.07126-.329848zm.212372.418747c.0011.105481.0088.174625.02364.205317.01446.03104.04163.05644.08149.07479.04022.01799.08184.02716.124178.02716.03916 0 .07585-.0071.11183-.02293.06668-.02681.103717-.07479.11042-.14358.0039-.03916.006-.08572.0064-.140759v-.419805c.0014-.09102-.0088-.155223-.02999-.191911-.03387-.05927-.100542-.08925-.198614-.08855-.03845 0-.07373.0056-.107245.0187-.0695.02364-.108302.07267-.116064.145697-.0049.03316-.0067.07197-.006.116064zM30.65157239 7.19252255v.14111h-.465298v.39617h.447698v.14076h-.447698v.57503h-.213101v-1.25307zM31.35936239 8.02619755v.06985c-.0011.03598.0028.06879.0127.100189.02117.08467.09066.127.207081.127.04374 0 .08361-.006.119591-.01834.07937-.02434.120297-.08467.12312-.178858-.000706-.06456-.02646-.115005-.07902-.150283-.03739-.02434-.08184-.04798-.132997-.07232l-.154869-.0702c-.06103-.02716-.112184-.05503-.153811-.08396-.08431-.05962-.127353-.144638-.127353-.256116.0018-.122061.04904-.208139.143933-.259292.06985-.03845.166511-.05821.288925-.05927.149578 0 .257528.02822.324556.08502.05256.04551.07832.135114.07832.268464v.02505h-.212372v-.02999l-.0042-.06491c-.01341-.09737-.0762-.144992-.189442-.142522-.143933 0-.215194.0575-.217311.172155 0 .07303.04551.132645.134761.178506.05539.02928.118534.05786.188384.08749.0702.02893.127705.0568.171802.08325.101953.0628.153811.156633.153811.283281-.0025.228247-.153811.343252-.45473.343252-.12947.0018-.228953-.02011-.298097-.06385-.08184-.05221-.125942-.125589-.132292-.222956l-.0035-.100542v-.05009zM32.18486239 7.19252155h.212372v.836436l.0018.11042c.0074.121708.07902.183091.212372.183797.134409 0 .208139-.05715.221192-.172156.0042-.04022.0067-.08079.0074-.122061v-.836436h.213078v.849842c-.000705.0695-.0032.123119-.0081.161572-.0056.05821-.02928.106892-.06985.14605-.07832.07585-.197555.112889-.357011.113594-.166158-.000705-.286455-.03739-.359833-.111477-.04022-.04233-.06315-.09137-.06844-.148167-.0032-.03387-.0049-.08714-.0049-.161572zM33.88176739 7.52303955l-.0011-.05821c-.0049-.100189-.06526-.149931-.179564-.149225-.101247.000352-.166864.02681-.197909.07902-.01658.02505-.02575.05115-.02787.0769l-.0018.103012v.494594c.0011.08961.0095.147461.02681.172861.03422.05398.09525.08114.181328.08114.112889-.000706.176742-.05398.191558-.160161l.0085-.08079v-.04304h.212725v.04374l-.0021.07832c-.006.09349-.0388.1651-.09631.215194-.03528.03069-.07655.05186-.123825.06421-.0568.01552-.117828.02293-.183797.02293-.0575.0011-.111831-.0042-.163336-.01482-.175331-.03281-.263173-.149578-.263525-.351367v-.49918c-.0011-.05468.0021-.104775.0095-.151695.0071-.05715.02575-.105128.0568-.142522.06809-.08467.189442-.128058.365125-.129469.245533.0014.377825.07937.396169.233186.0032.02963.0053.06244.0053.09878v.04868h-.212725zM34.90906539 7.52303955l-.0011-.05821c-.0053-.100189-.06421-.149931-.179211-.149225-.1016.000352-.167217.02681-.198262.07902-.01693.02505-.02611.05115-.02716.0769l-.0025.103012v.494594c.000706.08961.0099.147461.02611.172861.03528.05398.09596.08114.182033.08114.113242-.000706.176742-.05398.191206-.160161l.0088-.08079v-.04304h.212725v.04374l-.0018.07832c-.0071.09349-.03916.1651-.09631.215194-.03493.03069-.07655.05186-.124178.06421-.05574.01552-.117828.02293-.18415.02293-.0568.0011-.111478-.0042-.162983-.01482-.175331-.03281-.263173-.149578-.264231-.351367v-.49918c-.0011-.05468.0028-.104775.01023-.151695.0074-.05715.02575-.105128.05644-.142522.06809-.08467.190147-.128058.365478-.129469.245533.0014.377472.07937.396169.233186.0035.02963.0053.06244.0053.09878v.04868h-.212725zM35.30717339 7.19252255h.695701v.14111h-.483003v.39723h.453001v.14111h-.453001v.43215h.496703v.14147h-.709401zM36.32905739 8.02619755v.06985c-.000706.03598.0035.06879.01341.100189.02117.08467.08996.127.206727.127.04374 0 .08396-.006.119592-.01834.07938-.02434.12065-.08467.123825-.178858-.0014-.06456-.02752-.115005-.07973-.150283-.03739-.02434-.08184-.04798-.132997-.07232l-.154517-.0702c-.06138-.02716-.112536-.05503-.153458-.08396-.08467-.05962-.127706-.144638-.127706-.256116.0014-.122061.04868-.208139.143581-.259292.06985-.03845.166158-.05821.289278-.05927.149578 0 .257528.02822.324555.08502.05221.04551.07832.135114.07832.268464v.02505h-.212725v-.02999l-.0042-.06491c-.01305-.09737-.07655-.144992-.189442-.142522-.142875 0-.215547.0575-.216958.172155 0 .07303.04516.132645.134055.178506.05574.02928.118886.05786.189089.08749.0702.02893.127.0568.17145.08325.101953.0628.154164.156633.154164.283281-.0025.228247-.153458.343252-.455083.343252-.129823.0018-.2286-.02011-.297745-.06385-.0822-.05221-.126294-.125589-.132291-.222956l-.0039-.100542v-.05009zM37.31545039 8.02619755v.06985c-.0011.03598.0032.06879.0127.100189.02117.08467.09066.127.207081.127.0441 0 .08361-.006.118886-.01834.08008-.02434.121002-.08467.124177-.178858-.0011-.06456-.02752-.115005-.07973-.150283-.03704-.02434-.08184-.04798-.132998-.07232l-.154163-.0702c-.06138-.02716-.112537-.05503-.153459-.08396-.08537-.05962-.128058-.144638-.128058-.256116.0014-.122061.04939-.208139.14358-.259292.0702-.03845.166159-.05821.289631-.05927.149931 0 .257175.02822.32385.08502.05256.04551.07937.135114.07937.268464v.02505h-.212725v-.02999l-.0049-.06491c-.0127-.09737-.0762-.144992-.189442-.142522-.142522 0-.215194.0575-.216605.172155 0 .07303.04445.132645.134761.178506.05503.02928.118181.05786.188031.08749.07056.02893.127352.0568.171097.08325.102658.0628.154516.156633.154516.283281-.0025.228247-.153811.343252-.45473.343252-.129117.0018-.228247-.02011-.297745-.06385-.08255-.05221-.126294-.125589-.132644-.222956l-.0039-.100542v-.05009z"/>
  </g>
</svg>
