<svg width="512" height="512" xmlns="http://www.w3.org/2000/svg">

 <g>
  <title>background</title>
  <rect fill="none" id="canvas_background" height="402" width="582" y="-1" x="-1"/>
 </g>
 <g>
  <title>Layer 1</title>
  <path id="svg_1" fill="#000000" d="m473.655,88.275l-435.31,0c-21.178,0 -38.345,17.167 -38.345,38.345l0,258.76c0,21.177 17.167,38.345 38.345,38.345l435.31,0c21.177,0 38.345,-17.167 38.345,-38.345l0,-258.76c0,-21.178 -17.167,-38.345 -38.345,-38.345z"/>
  <g id="svg_3"/>
  <g id="svg_4"/>
  <g id="svg_5"/>
  <g id="svg_6"/>
  <g id="svg_7"/>
  <g id="svg_8"/>
  <g id="svg_9"/>
  <g id="svg_10"/>
  <g id="svg_11"/>
  <g id="svg_12"/>
  <g id="svg_13"/>
  <g id="svg_14"/>
  <g id="svg_15"/>
  <g id="svg_16"/>
  <g id="svg_17"/>
  <g stroke="null" id="svg_48">
   <path stroke="null" id="svg_23" fill-rule="evenodd" d="m16.813168,104.319883l481.70703,0l0,303.508468l-481.70703,0l0,-303.508468z"/>
   <g stroke="#000" transform="matrix(0.6473773733384649,0,0,0.6118382219041945,-3305.246731193905,-3222.324928317902) " id="svg_24" fill="#fff">
    <path stroke="null" id="svg_25" d="m5440.301511,5619.652586c3,-9 0,-25 1,-35c1,-6 5,-12 8,-18c2,-6 5,-14 12,-16c-2,6 -3,6 -5,11l-3,11c-2,5 -5,7 -6,12c-2,7 -1,24 -1,32c0,2 0,5 -2,7c-3,4 -12,1 -11,11c0,1 0,3 1,4c4,9 20,12 28,16c8,5 6,10 14,15c8,6 29,6 39,5c3,-1 8,-1 11,-3c8,-3 9,-11 17,-16c6,-3 19,-5 25,-14c1,-1 2,-3 2,-4c3,-11 -10,-7 -13,-14c-2,-5 1,-21 2,-26l3,3l0,9l1,10c11,-2 10,-15 11,-24c2,-24 2,-39 -15,-58c-10,-10 -23,-18 -37,-20l-9,0l-7,-1l-8,1c-13,1 -22,1 -33,7c-8,4 -13,9 -19,16c-15,16 -18,36 -15,57c1,8 3,17 9,22zm33,-30c14,-1 24,9 19,23c-4,9 -13,16 -23,18c-9,1 -13,-5 -13,-13c0,-13 2,-24 17,-28zm56,0c12,0 18,10 19,21c0,3 1,6 1,8c-1,7 -8,12 -15,13c-11,0 -24,-17 -23,-27c2,-9 10,-13 18,-15zm-18,61l-11,-2l-9,3c-1,-7 2,-17 5,-24c1,-2 3,-6 5,-7c4,-1 5,4 5,6c2,8 5,16 5,24z"/>
    <path stroke="null" id="svg_26" d="m5550.301511,5666.652586c-3,1 -7,1 -10,3c-10,7 -5,24 -14,35c-4,5 -13,7 -20,7c-13,0 -29,-1 -35,-14c-5,-9 2,-18 -9,-29c-2,-1 -5,-4 -7,-4c-3,0 -2,4 -2,6l1,20c0,15 4,15 11,24c4,6 7,12 14,15c9,3 19,3 28,2c7,0 11,1 18,-3s19,-20 21,-28l1,-14c2,-10 3,-8 3,-20z"/>
    <path stroke="null" id="svg_27" d="m5733.301511,5562.652586c-15,21 -31.265,38.794 -49,60l-24,27c-20,19 -70,56 -93,71c-13,9 -27,16 -41,22l-18.26,8.84c3,3 8.58,4.64 13.63,7c3,0 13.63,-5.84 16.63,-7.84l32,-18c6,-4 12,-9 19,-10c-3,7 -10,11 -17,15l-19,11s-19.95,11.37 -22.68,13.26c5.47,2.16 13.68,4.64 18.89,6.74c5,0 11.79,-5 15.79,-7c11,-6 25,-15 36,-23l18,-12c14,-11 28,-23 41,-36c10,-9 20,-18 28,-29c11,-13 18,-28 26,-43c9,-14 12,-23 17,-38c1,-5 4,-13 2,-18z"/>
    <path stroke="null" id="svg_28" d="m5274.301511,5557.652586c-3,11 1,24 5,34c9,24 24,45 39,65c9,13 24,29 35,40l12,10l26,23c21,16 60,40 84,51l32,14l13,5c15,6 30,10 46,13c9,2 19,5 28,5c-3,-11 -9,-10 -18,-13l-33,-13c-46,-19 -97,-38 -133,-74c7,0 12,6 17,10c7,5 16,11 24,16c22,13 72,36 97,45c10,4 27,11 37,11c8,1 19,-4 25,-8c-4,-4 -8,-3 -14,-4l-31,-9c-27,-7 -53,-17 -78,-30l-14,-6l-19,-12l-23,-15l-24,-19l-41,-32l-38,-39l-19,-22l-20,-22l-15,-24z"/>
    <path stroke="null" id="svg_29" d="m5595.301511,5804.652586c2,4 6,10 6,15c0,11 -13,21 -23,20c-4,-1 -13,-6 -16,0c-1,2 -1,4 0,5c0,4 5,6 9,8c11,3 23,-1 32,-7c7,-4 12,-11 14,-19l2,-13c1,-4 5,-5 10,-12c6,-8 12,-22 20,-28c3,-2 6,-3 10,-4c-2,-3 -4,-5 -6,-8c-2,-1 -4,-3 -6,-3c-3,-1 -7,-1 -10,1c-14,7 -11,20 -19,30c-6,8 -13,12 -23,15z"/>
    <path stroke="null" id="svg_30" d="m5627.301511,5817.652586c7,3 13,2 20,2l15,1c7,0 9,-4 12,-10c1,-2 2,-6 0,-8s-6,-2 -9,-2l-17,1c-3,0 -8,0 -11,1c-5,3 -9,10 -10,15z"/>
    <path stroke="null" id="svg_31" d="m5681.301511,5831.652586c-5,-2 -8,-4 -11,-8c-1,1 -2,1 -3,2c-1,5 12,17 14,6z"/>
    <path stroke="null" id="svg_32" d="m5674.301511,5797.652586l8,5c-2,4 -7,12 -6,17c1,10 15,10 21,4c7,-8 7,-20 -3,-26c-6,-3 -13,-2 -20,0z"/>
    <path stroke="null" id="svg_33" d="m5315.301511,5825.652586l1,1c8,-2 13,-5 14,-13c-6,1 -12,7 -15,12z"/>
    <path stroke="null" id="svg_34" d="m5322.301511,5788.652586c-3,-2 -6,-3 -10,-3c-3,0 -6,0 -9,1c-10,4 -11,20 -3,27c4,4 14,6 18,1c4,-4 3,-9 1,-14c-1,-3 -3,-7 -1,-9c1,-2 3,-2 4,-3z"/>
    <path stroke="null" id="svg_35" d="m5321.301511,5792.652586c1,3 6,15 8,17c3,2 6,2 9,2l18,-1l13,0c0,-3 0,-6 -1,-8c-3,-8 -14,-12 -22,-12l-9,1c-6,0 -11,-1 -16,1z"/>
    <path stroke="null" id="svg_36" d="m5340.301511,5760.652586c19,5 19,21 27,32c3,4 11,10 12,14c1,3 0,4 1,11c2,9 8,18 16,23c9,6 17,10 28,7c6,-2 12,-6 9,-13s-14,0 -21,-2c-7,-3 -15,-13 -15,-21l4,-14c-11,-4 -24,-13 -29,-24c-3,-7 -3,-17 -8,-22c-9,-7 -21,-1 -24,9z"/>
    <path stroke="null" id="svg_37" d="m5388.301511,5783.652586c3,4 5,5 9,7c14,8 23,2 37,-1l29,-9c-3.84,-2.58 -12.42,-7.95 -16,-10l-19,5l-40,8z"/>
    <path stroke="null" id="svg_38" d="m5402.301511,5812.652586c26,0 50,-8 75,-14c0,0 11,-5.206 14.676,-5.206c-3.47,-2.529 -17.622,-7.638 -19.836,-9.634c-3,0.89 -14.84,4.84 -18.84,5.84l-25,7l-12,3c-7,3 -12,4 -14,13z"/>
    <path stroke="null" id="svg_39" d="m5479.301511,5697.652586c0,2.5 0.25,5.535 1.25,7.035s4.755,1.639 5.75,0.965c0.808,-0.82 -0.75,-4.75 -1.625,-5.875s-2.375,-1.625 -5.375,-2.125z"/>
    <path stroke="null" id="svg_40" d="m5487.301511,5698.652586l1,5c0,1 1,3 2,4c4,2 6,-8 3,-9c-2,-1 -4,0 -6,0z"/>
    <path stroke="null" id="svg_41" d="m5499.301511,5699.652586c-3,2 -3.087,5.721 -1.962,7.596s3.462,1.904 4.962,1.404c1,-0.5 2.5,-3 2.625,-5.25s-1.125,-4.25 -5.625,-3.75z"/>
    <path stroke="null" id="svg_42" d="m5488.301511,5686.652586c2.703,1.395 7.174,-0.087 7.174,-0.087l-0.174,-5.913c-1,-4 -4,-5 -6,-3c-1,2 -1,7 -1,9z"/>
    <path stroke="null" id="svg_43" d="m5503.301511,5676.652586c-1,0 -4.133,-0.523 -5.133,0.477c-1.954,1.959 -2.867,8.523 0.133,10.523c1.872,0.477 5,0.913 6,-3.087l0,-2.913c0,0 -0.041,-3.256 -1,-5z"/>
    <path stroke="null" id="svg_44" d="m5513.301511,5708.652586c0.913,0.395 2,-1 3,-2c7,-7 -7.564,-12.61 -5,-2c0,0 0.954,3.826 2,4z"/>
    <path stroke="null" id="svg_45" d="m5485.041511,5675.652586c-1,-0.349 -2.738,0 -3.738,0c-7.779,3.523 2,17 5,8l0,-3s-0.564,-4.651 -1.262,-5z"/>
    <path stroke="null" id="svg_46" d="m5507.301511,5676.652586c0,0 -1.698,10.128 -1,11c1.308,0.697 5.343,0.523 6.826,-0.523c0,-3 0.184,-6.503 -0.419,-8.334s-1.907,-1.643 -5.407,-2.143z"/>
    <path stroke="null" id="svg_47" d="m5516.865511,5675.478586l-0.564,5.174c0,3 0.651,8.826 4.651,5.826c0.5,-0.5 1.851,-6.448 1.297,-9.162c-1.03,-1.454 -2.912,-1.6 -5.384,-1.838z"/>
   </g>
  </g>
 </g>
</svg>